# xmcd CD database file
#
# Track frame offsets:
#	182
#	13817
#	26245
#	42717
#	56022
#	67465
#	81325
#	95652
#	109877
#	125587
#	137590
#	150285
#	161305
#	178615
#	189895
#	203512
#	217157
#	243685
#	257327
#	271340
#
# Disc length: 3762 seconds
#
# Revision: 0
# Processed by: cddbd v1.5.2PL0 Copyright (c) Steve Scherf et al.
# Submitted via: CDex 1.70beta2
#
DISCID=260eb014
DTITLE=Louis Armstrong - His Most Famous Album: "The Good Book"
DYEAR=1992
DGENRE=Blues
TTITLE0=Nobody knows the trouble i've seen
TTITLE1=Shadrack
TTITLE2=Go down Moses
TTITLE3=Rock my soul
TTITLE4=Ezekiel saw the wheel
TTITLE5=On my way
TTITLE6=Down by the riverside
TTITLE7=Swing low, sweet chariot
TTITLE8=Sometimes I feel like a motherless child
TTITLE9=Jonah and the whale
TTITLE10=Didn't it rain
TTITLE11=This train
TTITLE12=I got plenty o'nuttin
TTITLE13=Gone fishing
TTITLE14=The flat foot floogie
TTITLE15=Muskrat ramble
TTITLE16=Cheek to cheek
TTITLE17=Carry me back to ole Virginny
TTITLE18=Way Down Yonder in New Orleans
TTITLE19=Marie
EXTD=YEAR: 1992
EXTT0=
EXTT1=
EXTT2=
EXTT3=
EXTT4=
EXTT5=
EXTT6=
EXTT7=
EXTT8=
EXTT9=
EXTT10=
EXTT11=
EXTT12=
EXTT13=
EXTT14=
EXTT15=
EXTT16=
EXTT17=
EXTT18=
EXTT19=
PLAYORDER=
